<svg width="715" height="1685" viewBox="0 0 715 1685" fill="none" xmlns="http://www.w3.org/2000/svg">
<rect width="715" height="1685" fill="white"/>
<rect x="191" y="281" width="136" height="118" fill="#6AB708"/>
<path d="M138.008 96.784L136.568 108.448H109.064V196H95.384V108.448H67.16V96.784H138.008ZM166.319 120.112V196H153.071V120.112H166.319ZM159.551 83.68C162.335 83.68 164.591 84.544 166.319 86.272C168.047 88 168.911 90.16 168.911 92.752C168.911 95.344 168.047 97.504 166.319 99.232C164.591 100.864 162.335 101.68 159.551 101.68C156.863 101.68 154.655 100.864 152.927 99.232C151.199 97.504 150.335 95.344 150.335 92.752C150.335 90.16 151.199 88 152.927 86.272C154.655 84.544 156.863 83.68 159.551 83.68ZM228.559 118.384C238.255 118.384 245.359 121.84 249.871 128.752C254.383 135.664 256.639 145.408 256.639 157.984C256.639 169.888 254.047 179.488 248.863 186.784C243.679 194.08 236.335 197.728 226.831 197.728C218.383 197.728 211.759 194.848 206.959 189.088V225.088L193.711 226.672V120.112H205.087L206.095 130.336C208.879 126.496 212.239 123.568 216.175 121.552C220.111 119.44 224.239 118.384 228.559 118.384ZM223.663 186.928C236.143 186.928 242.383 177.28 242.383 157.984C242.383 138.592 236.671 128.896 225.247 128.896C221.503 128.896 218.095 130 215.023 132.208C211.951 134.416 209.263 137.248 206.959 140.704V177.712C208.879 180.688 211.279 182.992 214.159 184.624C217.039 186.16 220.207 186.928 223.663 186.928ZM307.723 118.384C318.379 118.384 326.635 121.936 332.491 129.04C338.443 136.144 341.419 145.792 341.419 157.984C341.419 165.856 340.075 172.816 337.387 178.864C334.699 184.816 330.811 189.472 325.723 192.832C320.635 196.096 314.587 197.728 307.579 197.728C296.923 197.728 288.619 194.176 282.667 187.072C276.715 179.968 273.739 170.32 273.739 158.128C273.739 150.256 275.083 143.344 277.771 137.392C280.459 131.344 284.347 126.688 289.435 123.424C294.523 120.064 300.619 118.384 307.723 118.384ZM307.723 129.04C294.571 129.04 287.995 138.736 287.995 158.128C287.995 177.424 294.523 187.072 307.579 187.072C320.635 187.072 327.163 177.376 327.163 157.984C327.163 138.688 320.683 129.04 307.723 129.04ZM424.505 123.568C421.625 124.528 418.457 125.152 415.001 125.44C411.545 125.728 407.321 125.872 402.329 125.872C411.257 129.904 415.721 136.288 415.721 145.024C415.721 152.608 413.129 158.8 407.945 163.6C402.761 168.4 395.705 170.8 386.777 170.8C383.321 170.8 380.105 170.32 377.129 169.36C375.977 170.128 375.065 171.184 374.393 172.528C373.721 173.776 373.385 175.072 373.385 176.416C373.385 180.544 376.697 182.608 383.321 182.608H395.417C400.505 182.608 405.017 183.52 408.953 185.344C412.889 187.168 415.913 189.664 418.025 192.832C420.233 196 421.337 199.6 421.337 203.632C421.337 211.024 418.313 216.688 412.265 220.624C406.217 224.656 397.385 226.672 385.769 226.672C377.609 226.672 371.129 225.808 366.329 224.08C361.625 222.448 358.265 219.952 356.249 216.592C354.233 213.232 353.225 208.912 353.225 203.632H365.177C365.177 206.704 365.753 209.104 366.905 210.832C368.057 212.656 370.121 214 373.097 214.864C376.073 215.824 380.297 216.304 385.769 216.304C393.737 216.304 399.401 215.296 402.761 213.28C406.217 211.36 407.945 208.432 407.945 204.496C407.945 200.944 406.601 198.256 403.913 196.432C401.225 194.608 397.481 193.696 392.681 193.696H380.729C374.297 193.696 369.401 192.352 366.041 189.664C362.777 186.88 361.145 183.424 361.145 179.296C361.145 176.8 361.865 174.4 363.305 172.096C364.745 169.792 366.809 167.728 369.497 165.904C365.081 163.6 361.817 160.768 359.705 157.408C357.689 153.952 356.681 149.776 356.681 144.88C356.681 139.792 357.929 135.232 360.425 131.2C363.017 127.168 366.521 124.048 370.937 121.84C375.449 119.536 380.441 118.384 385.913 118.384C391.865 118.48 396.857 118.288 400.889 117.808C404.921 117.232 408.233 116.512 410.825 115.648C413.513 114.688 416.777 113.344 420.617 111.616L424.505 123.568ZM385.913 127.888C380.921 127.888 377.033 129.472 374.249 132.64C371.561 135.712 370.217 139.792 370.217 144.88C370.217 150.064 371.609 154.24 374.393 157.408C377.177 160.48 381.113 162.016 386.201 162.016C391.385 162.016 395.321 160.528 398.009 157.552C400.793 154.48 402.185 150.208 402.185 144.736C402.185 133.504 396.761 127.888 385.913 127.888ZM471.094 118.384C473.782 118.384 476.278 118.672 478.582 119.248L476.134 132.208C473.83 131.632 471.622 131.344 469.51 131.344C464.806 131.344 461.014 133.072 458.134 136.528C455.254 139.984 452.998 145.36 451.366 152.656V196H438.118V120.112H449.494L450.79 135.52C452.806 129.856 455.542 125.584 458.998 122.704C462.454 119.824 466.486 118.384 471.094 118.384ZM539.722 178.288C539.722 181.36 540.25 183.664 541.306 185.2C542.362 186.64 543.946 187.744 546.058 188.512L543.034 197.728C539.098 197.248 535.93 196.144 533.53 194.416C531.13 192.688 529.354 190 528.202 186.352C523.114 193.936 515.578 197.728 505.594 197.728C498.106 197.728 492.202 195.616 487.882 191.392C483.562 187.168 481.402 181.648 481.402 174.832C481.402 166.768 484.282 160.576 490.042 156.256C495.898 151.936 504.154 149.776 514.81 149.776H526.474V144.16C526.474 138.784 525.178 134.944 522.586 132.64C519.994 130.336 516.01 129.184 510.634 129.184C505.066 129.184 498.25 130.528 490.186 133.216L486.874 123.568C496.282 120.112 505.018 118.384 513.082 118.384C522.01 118.384 528.682 120.592 533.098 125.008C537.514 129.328 539.722 135.52 539.722 143.584V178.288ZM508.618 187.792C516.202 187.792 522.154 183.856 526.474 175.984V158.56H516.538C502.522 158.56 495.514 163.744 495.514 174.112C495.514 178.624 496.618 182.032 498.826 184.336C501.034 186.64 504.298 187.792 508.618 187.792ZM592.994 88C597.026 88 600.674 88.432 603.938 89.296C607.298 90.16 610.658 91.456 614.018 93.184L609.41 102.4C604.418 100 599.09 98.8 593.426 98.8C588.338 98.8 584.834 99.712 582.914 101.536C580.994 103.36 580.034 106.192 580.034 110.032V120.112H622.37V196H609.122V130.336H580.034V196H566.786V130.336H554.69V120.112H566.786V110.176C566.786 103.456 568.946 98.08 573.266 94.048C577.586 90.016 584.162 88 592.994 88ZM700.878 178.288C700.878 181.36 701.406 183.664 702.462 185.2C703.518 186.64 705.102 187.744 707.214 188.512L704.19 197.728C700.254 197.248 697.086 196.144 694.686 194.416C692.286 192.688 690.51 190 689.358 186.352C684.27 193.936 676.734 197.728 666.75 197.728C659.262 197.728 653.358 195.616 649.038 191.392C644.718 187.168 642.558 181.648 642.558 174.832C642.558 166.768 645.438 160.576 651.198 156.256C657.054 151.936 665.31 149.776 675.966 149.776H687.63V144.16C687.63 138.784 686.334 134.944 683.742 132.64C681.15 130.336 677.166 129.184 671.79 129.184C666.222 129.184 659.406 130.528 651.342 133.216L648.03 123.568C657.438 120.112 666.174 118.384 674.238 118.384C683.166 118.384 689.838 120.592 694.254 125.008C698.67 129.328 700.878 135.52 700.878 143.584V178.288ZM669.774 187.792C677.358 187.792 683.31 183.856 687.63 175.984V158.56H677.694C663.678 158.56 656.67 163.744 656.67 174.112C656.67 178.624 657.774 182.032 659.982 184.336C662.19 186.64 665.454 187.792 669.774 187.792Z" fill="black"/>
<rect x="191" y="1444" width="334" height="79" fill="#141414"/>
<rect x="191" y="1365" width="334" height="79" fill="#292929"/>
<rect x="191" y="1286" width="334" height="79" fill="#3D3D3D"/>
<rect x="191" y="1207" width="334" height="79" fill="#525252"/>
<rect x="191" y="1128" width="334" height="79" fill="#666666"/>
<rect x="191" y="1049" width="334" height="79" fill="#7A7A7A"/>
<rect x="191" y="970" width="334" height="79" fill="#8F8F8F"/>
<rect x="191" y="891" width="334" height="79" fill="#A3A3A3"/>
<rect x="191" y="812" width="334" height="79" fill="#B8B8B8"/>
<rect x="191" y="733" width="334" height="79" fill="#CCCCCC"/>
<rect x="191" y="654" width="334" height="79" fill="#E0E0E0"/>
<rect x="191" y="575" width="334" height="79" fill="#F0F0F0"/>
<rect x="191" y="496" width="334" height="79" fill="#F5F5F5"/>
</svg>
